<?xml version="1.0" standalone="no"?>
<!DOCTYPE svg PUBLIC "-//W3C//DTD SVG 20010904//EN"
 "http://www.w3.org/TR/2001/REC-SVG-20010904/DTD/svg10.dtd">
<svg version="1.0" xmlns="http://www.w3.org/2000/svg"
 width="747.000000pt" height="260.000000pt" viewBox="0 0 747.000000 260.000000"
 preserveAspectRatio="xMidYMid meet">

<g transform="translate(0.000000,260.000000) scale(0.100000,-0.100000)"
fill="#000000" stroke="none">
<path d="M2630 2281 l0 -191 68 0 c79 0 136 23 175 69 73 88 51 220 -49 282
-28 17 -57 24 -115 27 l-79 5 0 -192z m167 85 c25 -22 28 -31 28 -86 0 -55 -3
-64 -28 -86 -16 -14 -41 -24 -58 -24 l-29 0 0 110 0 110 29 0 c17 0 42 -10 58
-24z"/>
<path d="M3010 2285 l0 -185 40 0 40 0 0 185 0 185 -40 0 -40 0 0 -185z"/>
<path d="M3200 2284 l0 -185 38 3 37 3 3 68 c2 37 7 67 11 67 5 0 25 -24 45
-52 60 -89 59 -88 110 -88 l47 0 -48 60 c-50 64 -83 110 -68 97 14 -12 64 44
71 79 8 45 -19 99 -61 118 -21 10 -61 16 -109 16 l-76 0 0 -186z m158 104 c32
-32 1 -88 -49 -88 -28 0 -29 1 -29 50 0 50 0 50 33 50 18 0 38 -5 45 -12z"/>
<path d="M3572 2288 l3 -183 103 -3 102 -3 0 41 0 40 -65 0 -65 0 0 35 0 35
60 0 60 0 0 40 0 40 -60 0 -60 0 0 35 0 35 65 0 65 0 0 35 0 35 -105 0 -105 0
2 -182z"/>
<path d="M3993 2457 c-18 -7 -50 -29 -71 -49 -78 -74 -78 -175 2 -254 62 -63
140 -77 228 -43 26 10 26 11 10 39 -15 26 -20 28 -63 23 -66 -8 -114 10 -133
51 -25 54 -21 103 13 136 36 37 74 46 125 32 47 -12 56 -7 59 33 2 23 -3 30
-23 36 -38 11 -111 9 -147 -4z"/>
<path d="M2873 1835 c-88 -28 -172 -103 -220 -198 -34 -69 -43 -204 -19 -288
22 -74 79 -154 140 -196 137 -94 335 -83 460 27 121 107 160 305 91 459 -36
79 -122 161 -200 190 -65 24 -184 27 -252 6z m215 -172 c131 -97 111 -344 -32
-398 -89 -34 -181 -2 -228 80 -32 56 -33 181 -1 240 24 46 57 79 93 94 40 17
136 8 168 -16z"/>
<path d="M1590 1824 c0 -9 45 -174 100 -365 55 -192 100 -352 100 -355 0 -2
43 -3 97 -2 l96 3 27 96 c50 173 84 279 90 279 3 0 30 -86 60 -190 l53 -191
95 3 95 3 103 360 c56 198 101 362 98 364 -3 3 -44 7 -92 9 l-87 4 -59 -238
c-32 -132 -61 -243 -64 -248 -6 -11 -35 84 -94 309 -23 88 -42 161 -44 163 -1
2 -31 5 -66 8 l-65 5 -42 -163 c-76 -289 -84 -318 -92 -318 -4 0 -14 28 -22
63 -9 34 -35 140 -59 235 l-44 174 -92 4 c-81 4 -92 2 -92 -12z"/>
<path d="M3440 1471 l0 -371 85 0 85 0 0 135 c0 74 3 135 8 135 4 0 52 -61
107 -135 l100 -134 108 -1 c59 0 107 2 107 5 0 3 -11 18 -24 33 -80 91 -216
257 -216 263 0 3 13 12 29 19 101 41 143 192 85 308 -21 43 -34 56 -82 79 -54
27 -65 28 -224 32 l-168 3 0 -371z m273 218 c49 -22 62 -100 24 -144 -18 -21
-32 -27 -72 -28 l-50 -2 -3 93 -3 92 40 0 c22 0 51 -5 64 -11z"/>
<path d="M4070 1468 l0 -368 210 0 210 0 0 75 0 75 -125 0 -125 0 0 296 0 296
-85 -4 -85 -3 0 -367z"/>
<path d="M4578 1465 l-3 -367 160 4 c149 3 164 5 217 30 69 32 137 98 175 170
26 49 28 61 28 163 -1 90 -4 118 -22 155 -33 72 -96 135 -171 172 -65 32 -69
33 -224 36 l-158 4 -2 -367z m309 182 c117 -79 121 -275 7 -360 -24 -18 -36
-22 -106 -33 l-38 -7 0 218 0 217 53 -7 c28 -4 66 -16 84 -28z"/>
<path d="M6850 1618 c-36 -18 -69 -58 -82 -100 -15 -49 10 -118 55 -150 41
-29 116 -30 155 -2 34 25 62 79 62 119 0 39 -28 94 -61 118 -32 23 -96 31
-129 15z"/>
<path d="M5590 1420 c-12 -12 -20 -33 -20 -55 0 -19 -4 -35 -10 -35 -5 0 -10
-11 -10 -25 0 -14 5 -25 10 -25 6 0 10 -25 10 -55 0 -54 0 -55 30 -55 30 0 30
1 30 55 0 42 3 55 15 55 9 0 15 9 15 25 0 16 -6 25 -15 25 -10 0 -15 10 -15
30 0 19 5 30 14 30 16 0 29 27 20 41 -10 16 -53 10 -74 -11z"/>
<path d="M5405 1318 c-59 -34 -62 -104 -4 -133 66 -35 142 0 142 65 0 62 -80
101 -138 68z m80 -68 c0 -20 -6 -26 -28 -28 -29 -4 -44 16 -33 44 4 10 15 14
33 12 22 -2 28 -8 28 -28z"/>
<path d="M7158 1163 c6 -2 18 -2 25 0 6 3 1 5 -13 5 -14 0 -19 -2 -12 -5z"/>
<path d="M7021 1101 c-79 -73 -90 -161 -33 -243 53 -76 158 -99 248 -56 80 40
117 154 75 236 -38 74 -106 114 -191 111 -44 -2 -55 -7 -99 -48z"/>
<path d="M7352 985 c0 -16 2 -22 5 -12 2 9 2 23 0 30 -3 6 -5 -1 -5 -18z"/>
<path d="M1600 911 c-104 -33 -192 -110 -238 -209 -35 -76 -43 -205 -17 -283
35 -105 103 -185 193 -227 73 -34 185 -41 265 -18 249 72 349 383 192 596 -45
61 -139 125 -205 139 -58 12 -153 13 -190 2z m187 -176 c74 -44 114 -151 93
-247 -23 -110 -84 -163 -186 -163 -73 0 -120 27 -156 90 -32 56 -33 181 -1
240 24 46 57 79 93 94 34 15 123 6 157 -14z"/>
<path d="M3740 911 c-103 -32 -203 -119 -253 -221 -28 -57 -32 -74 -32 -150 0
-76 4 -93 32 -151 40 -80 120 -159 200 -197 53 -24 69 -27 173 -27 104 0 121
3 173 27 31 15 57 31 57 35 0 4 -15 35 -33 68 -35 65 -37 66 -107 40 -90 -33
-217 3 -271 78 -58 80 -60 164 -5 245 57 86 178 124 276 87 70 -26 72 -25 107
40 18 33 33 63 33 67 0 11 -60 40 -115 54 -54 15 -194 17 -235 5z"/>
<path d="M304 898 c-3 -4 11 -61 30 -125 19 -65 62 -219 96 -343 33 -124 63
-233 66 -243 5 -16 17 -17 101 -15 l96 3 14 45 c40 128 93 317 93 333 0 36 17
6 34 -60 10 -37 34 -126 53 -196 l36 -128 95 3 95 3 40 135 c124 423 161 557
162 584 0 6 -41 10 -91 11 l-91 1 -58 -230 c-31 -127 -60 -237 -64 -243 -6
-11 -45 121 -113 382 -12 44 -25 82 -29 85 -8 6 -119 4 -124 -2 -4 -6 -74
-263 -102 -375 -15 -62 -30 -113 -34 -113 -4 0 -10 19 -14 43 -6 39 -51 221
-93 381 l-18 69 -88 1 c-48 1 -90 -2 -92 -6z"/>
<path d="M2140 541 l0 -371 85 0 84 0 3 137 3 138 103 -137 104 -138 111 0
110 0 -20 22 c-60 68 -235 280 -232 282 2 2 24 14 47 27 104 57 133 217 60
322 -11 15 -43 40 -71 54 -49 26 -61 28 -219 31 l-168 4 0 -371z m269 211 c41
-20 56 -61 40 -109 -14 -43 -28 -53 -88 -60 l-51 -6 0 97 0 96 33 0 c17 0 48
-8 66 -18z"/>
<path d="M4183 903 l-33 -4 0 -365 0 -364 85 0 85 0 0 138 0 137 34 -40 c19
-22 68 -84 108 -137 l73 -97 181 -1 181 0 28 75 29 75 137 0 137 0 27 -70 c15
-38 30 -70 33 -71 57 -7 172 -6 172 1 0 6 -25 72 -55 148 -30 75 -95 236 -144
357 l-88 220 -82 0 -83 0 -123 -305 c-67 -168 -131 -324 -142 -346 l-19 -42
-54 65 c-30 36 -63 74 -74 86 -48 57 -86 105 -86 109 0 3 14 11 30 18 39 16
85 69 100 115 7 21 10 67 8 105 -3 58 -8 75 -34 107 -17 21 -53 50 -80 64 -46
24 -58 26 -184 26 -74 0 -150 -2 -167 -4z m240 -144 c43 -19 59 -81 36 -133
-13 -28 -55 -46 -105 -46 l-34 0 0 95 0 95 40 0 c21 0 50 -5 63 -11z m709
-191 c20 -51 35 -94 34 -96 -2 -1 -37 -2 -78 0 l-75 3 35 93 c19 50 38 92 41
92 4 0 23 -42 43 -92z"/>
<path d="M5960 835 l0 -75 85 0 85 0 0 -295 0 -295 85 0 85 0 0 296 0 295 90
-3 90 -3 0 78 0 77 -260 0 -260 0 0 -75z"/>
<path d="M2780 535 l0 -365 85 0 84 0 3 146 3 147 105 -119 c58 -66 114 -131
126 -146 20 -26 24 -27 135 -28 84 -1 113 1 111 10 -1 7 -75 92 -162 190 -88
98 -160 180 -160 183 0 3 65 81 144 174 l143 168 -101 3 c-116 3 -89 21 -246
-168 l-95 -114 -3 142 -3 142 -84 0 -85 0 0 -365z"/>
<path d="M5490 529 l0 -370 85 2 85 2 0 148 0 149 120 0 120 0 0 75 0 75 -120
0 -120 0 0 70 0 70 129 0 128 0 2 75 2 75 -215 0 -216 0 0 -371z"/>
</g>
</svg>
