<svg id="visual" viewBox="0 0 900 600" width="900" height="600" xmlns="http://www.w3.org/2000/svg" xmlns:xlink="http://www.w3.org/1999/xlink" version="1.1"><rect width="900" height="600" fill="#001829"></rect><g><g transform="translate(672 429)"><path d="M0 -65.7L56.9 -32.8L56.9 32.8L0 65.7L-56.9 32.8L-56.9 -32.8Z" fill="#009473"></path></g><g transform="translate(451 300)"><path d="M0 -16L13.9 -8L13.9 8L0 16L-13.9 8L-13.9 -8Z" fill="#009473"></path></g><g transform="translate(76 534)"><path d="M0 -21L18.2 -10.5L18.2 10.5L0 21L-18.2 10.5L-18.2 -10.5Z" fill="#009473"></path></g><g transform="translate(273 378)"><path d="M0 -45L39 -22.5L39 22.5L0 45L-39 22.5L-39 -22.5Z" fill="#009473"></path></g><g transform="translate(32 317)"><path d="M0 -60L52 -30L52 30L0 60L-52 30L-52 -30Z" fill="#009473"></path></g><g transform="translate(123 60)"><path d="M0 -62L53.7 -31L53.7 31L0 62L-53.7 31L-53.7 -31Z" fill="#009473"></path></g></g></svg>